<svg width="34" height="34" viewBox="0 0 34 34" fill="none" xmlns="http://www.w3.org/2000/svg">
<path d="M24.4992 17.4395V14.75C24.4985 13.5762 24.2202 12.4192 23.687 11.3735L27.4992 7.5605L26.4387 6.5L6.49921 26.4395L7.55971 27.5L12.0597 23H13.2492V23.75C13.2492 24.7446 13.6443 25.6984 14.3476 26.4016C15.0508 27.1049 16.0046 27.5 16.9992 27.5C17.9938 27.5 18.9476 27.1049 19.6509 26.4016C20.3541 25.6984 20.7492 24.7446 20.7492 23.75V23H25.9992C26.1981 23 26.3889 22.921 26.5295 22.7803C26.6702 22.6397 26.7492 22.4489 26.7492 22.25V20C26.7492 19.8011 26.6701 19.6104 26.5295 19.4697L24.4992 17.4395ZM19.2492 23.75C19.2492 24.3467 19.0122 24.919 18.5902 25.341C18.1682 25.7629 17.5959 26 16.9992 26C16.4025 26 15.8302 25.7629 15.4082 25.341C14.9863 24.919 14.7492 24.3467 14.7492 23.75V23H19.2492V23.75ZM25.2492 21.5H13.5597L22.5582 12.5015C22.8492 13.2154 22.999 13.979 22.9992 14.75V17.75C22.9992 17.9489 23.0783 18.1396 23.219 18.2803L25.2492 20.3105V21.5ZM10.7795 18.2803C10.9201 18.1396 10.9992 17.9489 10.9992 17.75V14.75C11.0012 13.1593 11.634 11.6343 12.7588 10.5096C13.8835 9.38476 15.4085 8.75198 16.9992 8.75C18.3608 8.75063 19.6809 9.21873 20.7387 10.076L21.8082 9.0065C20.6596 8.03721 19.2446 7.43798 17.7492 7.2875V5.75H16.2492V7.2875C14.4001 7.4757 12.6865 8.34284 11.4397 9.72124C10.1929 11.0996 9.50153 12.8914 9.49921 14.75V17.4395L7.24921 19.6895L8.30971 20.75L10.7795 18.2803Z" fill="#3F4047"/>
</svg>
