<svg width="16" height="16" viewBox="0 0 16 16" fill="none" xmlns="http://www.w3.org/2000/svg">
<path d="M9.2 1.6C10.1067 1.59993 10.9977 1.83696 11.7846 2.28757C12.5714 2.73818 13.2268 3.38671 13.6856 4.16881C14.1444 4.9509 14.3907 5.83938 14.4001 6.74607C14.4095 7.65276 14.1817 8.54615 13.7392 9.3376L14.376 11.0032C14.4289 11.1417 14.4424 11.2921 14.4148 11.4377C14.3872 11.5834 14.3197 11.7185 14.2198 11.828C14.1199 11.9375 13.9916 12.0171 13.8491 12.058C13.7066 12.0988 13.5555 12.0992 13.4128 12.0592L11.4232 11.5016C10.7184 11.8346 9.94784 12.0049 9.16838 11.9999C8.38893 11.9949 7.62057 11.8147 6.92014 11.4727C6.21971 11.1307 5.60512 10.6356 5.12184 10.0241C4.63857 9.41249 4.29895 8.7001 4.12813 7.93958C3.95731 7.17906 3.95965 6.38986 4.13498 5.63037C4.3103 4.87087 4.65413 4.16051 5.14102 3.55182C5.62792 2.94312 6.24543 2.45168 6.94787 2.11383C7.65032 1.77598 8.42053 1.60038 9.2 1.6ZM13.5992 6.8C13.5988 5.84114 13.2853 4.90865 12.7062 4.14439C12.1271 3.38014 11.3143 2.82597 10.3913 2.56619C9.46827 2.30641 8.48568 2.35525 7.593 2.70528C6.70031 3.05531 5.9464 3.68736 5.44598 4.50527C4.94555 5.32318 4.726 6.28217 4.82073 7.23634C4.91546 8.1905 5.31929 9.08761 5.97077 9.79115C6.62225 10.4947 7.48573 10.9662 8.42981 11.1338C9.37389 11.3015 10.3469 11.1562 11.2008 10.72L11.34 10.648L13.628 11.2888L12.8528 9.26L12.9552 9.092C13.3778 8.40228 13.6002 7.60891 13.5992 6.8ZM6.8296 14.4C7.5781 14.4006 8.31786 14.2393 8.9982 13.9272C9.67854 13.6151 10.2834 13.1597 10.7712 12.592C10.3117 12.7161 9.83903 12.7852 9.3632 12.7976C8.62179 13.3197 7.73718 13.5999 6.8304 13.6C6.1088 13.6 5.4288 13.4264 4.8288 13.12L4.6896 13.048L2.4016 13.6888L3.1768 11.66L3.0744 11.492C2.6664 10.8248 2.4304 10.0408 2.4304 9.2C2.42896 8.31161 2.69795 7.44382 3.2016 6.712C3.20811 6.23607 3.27122 5.76261 3.3896 5.3016C2.83593 5.78886 2.3926 6.38865 2.08923 7.06092C1.78586 7.73319 1.62944 8.46245 1.6304 9.2C1.6304 10.1208 1.8704 10.9864 2.2904 11.7376L1.6544 13.4032C1.60147 13.5417 1.58804 13.6921 1.61562 13.8377C1.6432 13.9834 1.7107 14.1185 1.81059 14.228C1.91048 14.3375 2.03884 14.4171 2.18134 14.458C2.32384 14.4988 2.47487 14.4992 2.6176 14.4592L4.6072 13.9016C5.2816 14.2216 6.036 14.4 6.8312 14.4" fill="white"/>
<path d="M9.20093 1.6001C10.1077 1.60003 10.9987 1.83706 11.7855 2.28767C12.5724 2.73828 13.2277 3.38681 13.6865 4.1689C14.1453 4.951 14.3917 5.83947 14.4011 6.74617C14.4105 7.65286 14.1826 8.54625 13.7401 9.3377L14.3769 11.0033C14.4299 11.1418 14.4433 11.2922 14.4157 11.4378C14.3881 11.5835 14.3206 11.7186 14.2207 11.8281C14.1209 11.9376 13.9925 12.0172 13.85 12.0581C13.7075 12.0989 13.5565 12.0993 13.4137 12.0593L11.4241 11.5017C10.7194 11.8347 9.94877 12.005 9.16931 12C8.38986 11.995 7.6215 11.8148 6.92107 11.4728C6.22064 11.1308 5.60605 10.6357 5.12278 10.0242C4.6395 9.41259 4.29989 8.7002 4.12906 7.93968C3.95824 7.17916 3.96058 6.38996 4.13591 5.63047C4.31123 4.87097 4.65506 4.16061 5.14195 3.55192C5.62885 2.94322 6.24636 2.45178 6.9488 2.11393C7.65125 1.77608 8.42146 1.60048 9.20093 1.6001ZM13.6001 6.8001C13.5998 5.84124 13.2862 4.90875 12.7071 4.14449C12.1281 3.38024 11.3152 2.82607 10.3922 2.56629C9.4692 2.30651 8.48661 2.35535 7.59393 2.70538C6.70124 3.05541 5.94733 3.68746 5.44691 4.50537C4.94648 5.32328 4.72693 6.28227 4.82166 7.23644C4.91639 8.1906 5.32022 9.08771 5.9717 9.79125C6.62319 10.4948 7.48666 10.9663 8.43074 11.1339C9.37482 11.3016 10.3478 11.1563 11.2017 10.7201L11.3409 10.6481L13.6289 11.2889L12.8537 9.2601L12.9561 9.0921C13.3788 8.40238 13.6012 7.60901 13.6001 6.8001Z" fill="white"/>
</svg>
