<svg width="24" height="25" viewBox="0 0 24 25" fill="none" xmlns="http://www.w3.org/2000/svg">
<path d="M6 7.83333V5.96667C6 5.8429 6.04917 5.7242 6.13668 5.63668C6.2242 5.54917 6.3429 5.5 6.46667 5.5H17.9778C18.1015 5.5 18.2202 5.54917 18.3078 5.63668C18.3953 5.7242 18.4444 5.8429 18.4444 5.96667V7.83333M6 17.1667V19.0333C6 19.1571 6.04917 19.2758 6.13668 19.3633C6.2242 19.4508 6.3429 19.5 6.46667 19.5H17.9778C18.1015 19.5 18.2202 19.4508 18.3078 19.3633C18.3953 19.2758 18.4444 19.1571 18.4444 19.0333V17.1667" stroke="#3F4047" stroke-width="1.5" stroke-linecap="round"/>
<path d="M14.9481 14.837V10.1703H17.2814M14.9481 12.5036H16.5036M12.2258 14.837V10.1703M9.50362 10.1703H7.17029V14.837H9.50362V12.9703" stroke="#3F4047" stroke-width="1.5" stroke-linecap="round" stroke-linejoin="round"/>
</svg>
