<svg width="23" height="22" viewBox="0 0 23 22" fill="none" xmlns="http://www.w3.org/2000/svg">
<path d="M3.19551 11.0019C3.19288 12.6067 3.64309 14.1797 4.49442 15.5402C5.18672 16.6478 6.12155 17.5838 7.22837 18.2774L7.22861 18.2776C8.59401 19.1296 10.1716 19.5803 11.7811 19.5779C13.3905 19.5756 14.9668 19.1203 16.3298 18.2643C17.6927 17.4083 18.7872 16.186 19.4881 14.7372C20.189 13.2884 20.4681 11.6715 20.2934 10.0716C20.1187 8.47166 19.4973 6.95317 18.5002 5.68978C17.5031 4.42638 16.1706 3.46908 14.6551 2.92734C13.1396 2.3856 11.5022 2.28129 9.93013 2.62634C8.3581 2.97138 6.9149 3.75185 5.76555 4.87851L5.50326 5.13562H5.87056L7.555 5.13563L7.55576 5.13562C7.82539 5.13426 8.08528 5.23634 8.28192 5.42083C8.47855 5.60533 8.59696 5.8582 8.61275 6.12737C8.62855 6.39654 8.54054 6.66153 8.36684 6.86776C8.19405 7.07291 7.94955 7.20438 7.68324 7.23547L7.55097 7.2426H2.74015C2.48261 7.24172 2.2343 7.14652 2.04217 6.975C1.85109 6.80442 1.72875 6.57011 1.69793 6.31594L1.69082 6.18399V1.37625H1.69082L1.69082 1.37549C1.68946 1.10586 1.79154 0.845969 1.97603 0.649336C2.16053 0.452703 2.4134 0.334296 2.68257 0.318498C2.95174 0.3027 3.21673 0.390714 3.42296 0.564415C3.62811 0.737206 3.75958 0.981704 3.79067 1.24801L3.79779 1.38028V3.51241V3.88662L4.05626 3.61602C5.05233 2.5732 6.24958 1.7433 7.57561 1.1765C8.90163 0.609696 10.3289 0.317787 11.7709 0.318429H11.771C13.8838 0.318429 15.9491 0.944944 17.7059 2.11875C19.4626 3.29255 20.8318 4.96092 21.6403 6.91289C22.4488 8.86485 22.6604 11.0127 22.2482 13.0849C21.836 15.1571 20.8186 17.0606 19.3246 18.5545C17.8307 20.0485 15.9272 21.0659 13.855 21.4781C11.7828 21.8903 9.63496 21.6787 7.683 20.8702C5.73103 20.0617 4.06266 18.6925 2.88886 16.9357C1.71505 15.179 1.08854 13.1137 1.08854 11.0009C1.08854 10.6754 1.10314 10.352 1.13233 10.0309L1.13234 10.0308C1.15749 9.75253 1.29215 9.49565 1.5067 9.31667C1.72125 9.13768 1.99812 9.05126 2.27639 9.07641C2.55466 9.10155 2.81154 9.23622 2.99052 9.45076C3.16949 9.66529 3.25592 9.94213 3.23079 10.2204M3.19551 11.0019C3.19551 10.7396 3.20727 10.4791 3.23079 10.2204M3.19551 11.0019C3.19551 11.0018 3.19551 11.0018 3.19551 11.0017L3.34551 11.002M3.19551 11.0019C3.19551 11.0019 3.19551 11.0019 3.19551 11.002H3.34551M3.23079 10.2204L3.38017 10.234M3.23079 10.2204C3.23079 10.2204 3.23079 10.2204 3.23078 10.2204L3.38017 10.234M3.38017 10.234C3.4089 9.91606 3.31017 9.59977 3.10571 9.35468C2.90124 9.10958 2.60778 8.95574 2.28989 8.92701C1.972 8.89828 1.65571 8.99701 1.41061 9.20148C1.16551 9.40595 1.01168 9.69941 0.982951 10.0173L3.34551 11.002M3.38017 10.234C3.35706 10.4882 3.34551 10.7442 3.34551 11.002M5.87056 4.98562V4.83562H6.02757C5.97464 4.8849 5.92229 4.93491 5.87056 4.98562ZM5.87056 4.98562L5.97556 5.09274C6.01236 5.05667 6.04947 5.02096 6.08689 4.98562H5.87056ZM10.8687 5.13237C11.0506 5.13242 11.2264 5.1983 11.3635 5.31785C11.4993 5.43622 11.5882 5.59928 11.6141 5.77743L11.621 5.89041L10.8687 5.13237ZM10.8687 5.13237V4.98237L10.8686 5.13237H10.8687ZM14.6015 12.798L14.5909 12.6484L14.5863 12.6487C14.5849 12.6489 14.5835 12.6491 14.5821 12.6493L14.6015 12.798ZM10.8687 12.6567C10.8687 12.6567 10.8687 12.6567 10.8687 12.6567V12.8067L10.8687 12.6567ZM9.97389 12.0267L10.1235 12.0161L10.1231 12.0109C10.1229 12.0094 10.1227 12.0078 10.1225 12.0062L9.97389 12.0267ZM10.1152 11.9043V11.899L10.1149 11.8937L9.96523 11.9043H10.1152ZM14.4791 12.6567H14.4738L14.4685 12.657L14.4791 12.8067V12.6567Z" fill="#3F4047" stroke="#E8EAF1" stroke-width="0.3"/>
</svg>
