<svg width="22" height="22" viewBox="0 0 22 22" fill="none" xmlns="http://www.w3.org/2000/svg">
<path d="M16.675 21.1234H5.452C4.13905 21.122 2.88026 20.5999 1.95187 19.6715C1.02348 18.7431 0.501324 17.4843 0.5 16.1714L0.5 9.22837C0.502202 8.46679 0.679044 7.71587 1.01692 7.03335C1.35481 6.35083 1.84472 5.75489 2.449 5.29137L8.06 1.01137C8.92363 0.355229 9.97839 0 11.063 0C12.1476 0 13.2024 0.355229 14.066 1.01137L15.85 2.37037V1.31737C15.85 1.09843 15.937 0.888464 16.0918 0.733653C16.2466 0.578842 16.4566 0.49187 16.6755 0.49187C16.8944 0.49187 17.1044 0.578842 17.2592 0.733653C17.414 0.888464 17.501 1.09843 17.501 1.31737V4.03737C17.501 4.1911 17.458 4.34175 17.3769 4.47235C17.2958 4.60295 17.1798 4.70829 17.042 4.7765C16.9043 4.8447 16.7502 4.87306 16.5972 4.85838C16.4442 4.84369 16.2983 4.78654 16.176 4.69337L13.065 2.32337C12.4896 1.88685 11.7872 1.65056 11.065 1.65056C10.3428 1.65056 9.64038 1.88685 9.065 2.32337L3.45 6.60337C3.04698 6.91235 2.72022 7.30966 2.49484 7.76474C2.26947 8.21982 2.1515 8.72054 2.15 9.22837V16.1714C2.15 17.0466 2.49768 17.886 3.11655 18.5048C3.73542 19.1237 4.57479 19.4714 5.45 19.4714H16.675C17.5502 19.4714 18.3896 19.1237 19.0085 18.5048C19.6273 17.886 19.975 17.0466 19.975 16.1714V9.22837C19.9766 8.72038 19.8617 8.21878 19.6391 7.76215C19.4165 7.30551 19.0922 6.90602 18.691 6.59437C18.5221 6.46001 18.4125 6.26478 18.3858 6.05058C18.3592 5.83637 18.4175 5.62025 18.5484 5.44857C18.6792 5.27689 18.8722 5.16334 19.0858 5.13227C19.2994 5.1012 19.5167 5.15508 19.691 5.28237C20.2936 5.74845 20.7813 6.34653 21.1166 7.03061C21.4519 7.71469 21.6258 8.46655 21.625 9.22837V16.1714C21.6237 17.484 21.1018 18.7425 20.1738 19.6708C19.2459 20.5991 17.9876 21.1215 16.675 21.1234ZM9.413 9.52837C9.20893 9.52817 9.00939 9.58848 8.83959 9.70167C8.66979 9.81486 8.53736 9.97585 8.45904 10.1643C8.38072 10.3527 8.36002 10.5602 8.39956 10.7604C8.43911 10.9606 8.53712 11.1445 8.68121 11.289C8.8253 11.4335 9.00899 11.5321 9.20908 11.5722C9.40916 11.6123 9.61665 11.5923 9.80531 11.5145C9.99398 11.4367 10.1554 11.3047 10.269 11.1353C10.3827 10.9658 10.4436 10.7664 10.444 10.5624C10.4443 10.4268 10.4178 10.2924 10.3661 10.1671C10.3144 10.0417 10.2385 9.92773 10.1428 9.8317C10.047 9.73567 9.93331 9.65945 9.80808 9.6074C9.68286 9.55536 9.54861 9.5285 9.413 9.52837ZM13.745 10.5624C13.7367 10.8304 13.6243 11.0846 13.4318 11.2713C13.2393 11.4579 12.9816 11.5622 12.7135 11.5622C12.4454 11.5622 12.1877 11.4579 11.9952 11.2713C11.8027 11.0846 11.6903 10.8304 11.682 10.5624C11.6903 10.2944 11.8027 10.0401 11.9952 9.85349C12.1877 9.66686 12.4454 9.56249 12.7135 9.56249C12.9816 9.56249 13.2393 9.66686 13.4318 9.85349C13.6243 10.0401 13.7367 10.2944 13.745 10.5624ZM10.445 13.8624C10.4367 14.1304 10.3243 14.3846 10.1318 14.5713C9.93926 14.7579 9.68164 14.8622 9.4135 14.8622C9.14536 14.8622 8.88774 14.7579 8.69521 14.5713C8.50268 14.3846 8.39035 14.1304 8.382 13.8624C8.3937 13.5968 8.50744 13.346 8.6995 13.1622C8.89157 12.9784 9.14716 12.8758 9.413 12.8758C9.67884 12.8758 9.93443 12.9784 10.1265 13.1622C10.3186 13.346 10.4333 13.5968 10.445 13.8624ZM13.745 13.8624C13.7367 14.1304 13.6243 14.3846 13.4318 14.5713C13.2393 14.7579 12.9816 14.8622 12.7135 14.8622C12.4454 14.8622 12.1877 14.7579 11.9952 14.5713C11.8027 14.3846 11.6903 14.1304 11.682 13.8624C11.6903 13.5944 11.8027 13.3401 11.9952 13.1535C12.1877 12.9669 12.4454 12.8625 12.7135 12.8625C12.9816 12.8625 13.2393 12.9669 13.4318 13.1535C13.6243 13.3401 13.7367 13.5944 13.745 13.8624Z" fill="#3F4047"/>
</svg>
