<svg width="12" height="12" viewBox="0 0 12 12" fill="none" xmlns="http://www.w3.org/2000/svg">
<path d="M8.5875 11.0617H2.976C2.31953 11.061 1.69013 10.7999 1.22593 10.3358C0.761738 9.87155 0.500662 9.24216 0.5 8.58568L0.5 5.11418C0.501101 4.7334 0.589522 4.35794 0.758462 4.01667C0.927403 3.67541 1.17236 3.37744 1.4745 3.14568L4.28 1.00568C4.71181 0.677615 5.2392 0.5 5.7815 0.5C6.3238 0.5 6.85118 0.677615 7.283 1.00568L8.175 1.68518V1.15868C8.175 1.04922 8.21849 0.944232 8.29589 0.866826C8.3733 0.789421 8.47828 0.745935 8.58775 0.745935C8.69722 0.745935 8.8022 0.789421 8.87961 0.866826C8.95701 0.944232 9.0005 1.04922 9.0005 1.15868V2.51868C9.00048 2.59555 8.97898 2.67088 8.93844 2.73618C8.89789 2.80147 8.83991 2.85414 8.77102 2.88825C8.70214 2.92235 8.6251 2.93653 8.54859 2.92919C8.47208 2.92184 8.39914 2.89327 8.338 2.84668L6.7825 1.66168C6.49481 1.44342 6.14361 1.32528 5.7825 1.32528C5.42139 1.32528 5.07019 1.44342 4.7825 1.66168L1.975 3.80168C1.77349 3.95617 1.61011 4.15483 1.49742 4.38237C1.38473 4.60991 1.32575 4.86027 1.325 5.11418V8.58568C1.325 9.02329 1.49884 9.44298 1.80827 9.75241C2.11771 10.0618 2.53739 10.2357 2.975 10.2357H8.5875C9.02511 10.2357 9.44479 10.0618 9.75423 9.75241C10.0637 9.44298 10.2375 9.02329 10.2375 8.58568V5.11418C10.2383 4.86019 10.1809 4.60939 10.0696 4.38107C9.95826 4.15276 9.79608 3.95301 9.5955 3.79718C9.51103 3.73 9.45625 3.63239 9.44292 3.52529C9.42959 3.41818 9.45877 3.31012 9.52419 3.22428C9.58962 3.13845 9.68608 3.08167 9.79288 3.06613C9.89969 3.0506 10.0083 3.07754 10.0955 3.14118C10.3968 3.37423 10.6407 3.67327 10.8083 4.0153C10.9759 4.35734 11.0629 4.73327 11.0625 5.11418V8.58568C11.0618 9.24198 10.8009 9.87123 10.3369 10.3354C9.87294 10.7996 9.2438 11.0608 8.5875 11.0617ZM4.9565 5.26418C4.85447 5.26409 4.75469 5.29424 4.66979 5.35083C4.58489 5.40743 4.51868 5.48792 4.47952 5.58214C4.44036 5.67636 4.43001 5.78008 4.44978 5.88018C4.46955 5.98028 4.51856 6.07227 4.5906 6.14452C4.66265 6.21677 4.7545 6.26605 4.85454 6.28611C4.95458 6.30617 5.05832 6.29613 5.15266 6.25724C5.24699 6.21835 5.32768 6.15237 5.38452 6.06764C5.44136 5.9829 5.4718 5.88322 5.472 5.78119C5.47213 5.71338 5.4589 5.64622 5.43306 5.58353C5.40722 5.52084 5.36927 5.46386 5.3214 5.41585C5.27352 5.36783 5.21665 5.32973 5.15404 5.3037C5.09143 5.27768 5.0243 5.26425 4.9565 5.26418ZM7.1225 5.78119C7.11833 5.91519 7.06216 6.04231 6.96589 6.13563C6.86963 6.22894 6.74082 6.28112 6.60675 6.28112C6.47268 6.28112 6.34387 6.22894 6.24761 6.13563C6.15134 6.04231 6.09517 5.91519 6.091 5.78119C6.09517 5.64718 6.15134 5.52006 6.24761 5.42674C6.34387 5.33343 6.47268 5.28125 6.60675 5.28125C6.74082 5.28125 6.86963 5.33343 6.96589 5.42674C7.06216 5.52006 7.11833 5.64718 7.1225 5.78119ZM5.4725 7.43118C5.46833 7.56519 5.41216 7.69231 5.31589 7.78563C5.21963 7.87894 5.09082 7.93112 4.95675 7.93112C4.82268 7.93112 4.69387 7.87894 4.59761 7.78563C4.50134 7.69231 4.44517 7.56519 4.441 7.43118C4.44685 7.29839 4.50372 7.17298 4.59975 7.08109C4.69579 6.98919 4.82358 6.9379 4.9565 6.9379C5.08942 6.9379 5.21721 6.98919 5.31325 7.08109C5.40928 7.17298 5.46665 7.29839 5.4725 7.43118ZM7.1225 7.43118C7.11833 7.56519 7.06216 7.69231 6.96589 7.78563C6.86963 7.87894 6.74082 7.93112 6.60675 7.93112C6.47268 7.93112 6.34387 7.87894 6.24761 7.78563C6.15134 7.69231 6.09517 7.56519 6.091 7.43118C6.09517 7.29718 6.15134 7.17006 6.24761 7.07674C6.34387 6.98343 6.47268 6.93125 6.60675 6.93125C6.74082 6.93125 6.86963 6.98343 6.96589 7.07674C7.06216 7.17006 7.11833 7.29718 7.1225 7.43118Z" fill="#2C2C30"/>
</svg>
