<svg width="18" height="18" viewBox="0 0 18 18" fill="none" xmlns="http://www.w3.org/2000/svg">
<path d="M13.8508 12.6215L14.1433 14.9913C14.2183 15.6138 13.5508 16.0487 13.0184 15.7262L9.87615 13.8589C9.53118 13.8589 9.19372 13.8364 8.86375 13.7914C9.4187 13.139 9.74866 12.314 9.74866 11.4216C9.74866 9.29181 7.90382 7.56699 5.62402 7.56699C4.7541 7.56699 3.95167 7.81445 3.28423 8.24941C3.26173 8.06193 3.25422 7.87444 3.25422 7.67946C3.25422 4.26725 6.21647 1.5 9.87615 1.5C13.5358 1.5 16.4981 4.26725 16.4981 7.67946C16.4981 9.70428 15.4557 11.4966 13.8508 12.6215Z" stroke="#3F4047" stroke-width="1.1249" stroke-linecap="round" stroke-linejoin="round"/>
<path d="M9.74928 11.4216C9.74928 12.314 9.41932 13.139 8.86437 13.7914C8.12193 14.6913 6.94453 15.2688 5.62464 15.2688L3.66731 16.4311C3.33734 16.6336 2.91737 16.3562 2.96237 15.9737L3.14985 14.4963C2.14494 13.7989 1.5 12.6815 1.5 11.4216C1.5 10.1017 2.20494 8.93932 3.28485 8.24938C3.95229 7.81441 4.75472 7.56696 5.62464 7.56696C7.90444 7.56696 9.74928 9.29177 9.74928 11.4216Z" stroke="#3F4047" stroke-width="1.1249" stroke-linecap="round" stroke-linejoin="round"/>
</svg>
