<svg width="24" height="25" viewBox="0 0 24 25" fill="none" xmlns="http://www.w3.org/2000/svg">
<path d="M8.4964 5.67135C8.55072 5.72553 8.59381 5.78989 8.62321 5.86075C8.65262 5.93161 8.66775 6.00757 8.66775 6.08429C8.66775 6.16101 8.65262 6.23697 8.62321 6.30783C8.59381 6.37869 8.55072 6.44305 8.4964 6.49723L6.16341 8.83021C6.10924 8.88453 6.04487 8.92762 5.97402 8.95703C5.90316 8.98643 5.82719 9.00156 5.75048 9.00156C5.67376 9.00156 5.5978 8.98643 5.52694 8.95703C5.45608 8.92762 5.39172 8.88453 5.33754 8.83021L4.17104 7.66372C4.11682 7.60949 4.0738 7.54511 4.04445 7.47426C4.01511 7.40341 4 7.32747 4 7.25078C4 7.17409 4.01511 7.09815 4.04445 7.0273C4.0738 6.95645 4.11682 6.89207 4.17104 6.83784C4.22527 6.78362 4.28965 6.7406 4.3605 6.71125C4.43135 6.6819 4.50729 6.6668 4.58398 6.6668C4.66067 6.6668 4.73661 6.6819 4.80746 6.71125C4.87832 6.7406 4.94269 6.78362 4.99692 6.83784L5.75048 7.59256L7.67052 5.67135C7.7247 5.61703 7.78906 5.57394 7.85992 5.54454C7.93078 5.51514 8.00674 5.5 8.08346 5.5C8.16018 5.5 8.23614 5.51514 8.307 5.54454C8.37786 5.57394 8.44222 5.61703 8.4964 5.67135ZM19.7484 7.83403H10.4164C10.2618 7.83403 10.1134 7.77258 10.004 7.6632C9.89465 7.55382 9.8332 7.40547 9.8332 7.25078C9.8332 7.0961 9.89465 6.94774 10.004 6.83836C10.1134 6.72898 10.2618 6.66754 10.4164 6.66754H19.7484C19.9031 6.66754 20.0514 6.72898 20.1608 6.83836C20.2702 6.94774 20.3316 7.0961 20.3316 7.25078C20.3316 7.40547 20.2702 7.55382 20.1608 7.6632C20.0514 7.77258 19.9031 7.83403 19.7484 7.83403ZM9.8332 12.5C9.8332 12.3453 9.89465 12.197 10.004 12.0876C10.1134 11.9782 10.2618 11.9168 10.4164 11.9168H19.7484C19.9031 11.9168 20.0514 11.9782 20.1608 12.0876C20.2702 12.197 20.3316 12.3453 20.3316 12.5C20.3316 12.6547 20.2702 12.803 20.1608 12.9124C20.0514 13.0218 19.9031 13.0832 19.7484 13.0832H10.4164C10.2618 13.0832 10.1134 13.0218 10.004 12.9124C9.89465 12.803 9.8332 12.6547 9.8332 12.5ZM8.4964 16.1698C8.55072 16.224 8.59381 16.2883 8.62321 16.3592C8.65262 16.43 8.66775 16.506 8.66775 16.5827C8.66775 16.6594 8.65262 16.7354 8.62321 16.8063C8.59381 16.8771 8.55072 16.9415 8.4964 16.9957L6.16341 19.3286C6.10924 19.383 6.04487 19.4261 5.97402 19.4555C5.90316 19.4849 5.82719 19.5 5.75048 19.5C5.67376 19.5 5.5978 19.4849 5.52694 19.4555C5.45608 19.4261 5.39172 19.383 5.33754 19.3286L4.17104 18.1622C4.11682 18.1079 4.0738 18.0436 4.04445 17.9727C4.01511 17.9018 4 17.8259 4 17.7492C4 17.6725 4.01511 17.5966 4.04445 17.5257C4.0738 17.4549 4.11682 17.3905 4.17104 17.3363C4.28056 17.2268 4.4291 17.1652 4.58398 17.1652C4.66067 17.1652 4.73661 17.1803 4.80746 17.2097C4.87832 17.239 4.94269 17.2821 4.99692 17.3363L5.75048 18.091L7.67052 16.1698C7.7247 16.1155 7.78906 16.0724 7.85992 16.043C7.93078 16.0136 8.00674 15.9984 8.08346 15.9984C8.16018 15.9984 8.23614 16.0136 8.307 16.043C8.37786 16.0724 8.44222 16.1155 8.4964 16.1698ZM19.7484 18.3325H10.4164C10.2618 18.3325 10.1134 18.271 10.004 18.1616C9.89465 18.0523 9.8332 17.9039 9.8332 17.7492C9.8332 17.5945 9.89465 17.4462 10.004 17.3368C10.1134 17.2274 10.2618 17.166 10.4164 17.166H19.7484C19.9031 17.166 20.0514 17.2274 20.1608 17.3368C20.2702 17.4462 20.3316 17.5945 20.3316 17.7492C20.3316 17.9039 20.2702 18.0523 20.1608 18.1616C20.0514 18.271 19.9031 18.3325 19.7484 18.3325Z" fill="#3F4047"/>
</svg>
