<svg width="14" height="21" viewBox="0 0 14 21" fill="none" xmlns="http://www.w3.org/2000/svg">
<path d="M13.303 18.543V8.725C13.3021 8.47557 13.2236 8.23262 13.0782 8.02992C12.9329 7.82722 12.728 7.67485 12.492 7.594L8.226 6.154V11.369C8.22653 11.6849 8.13123 11.9936 7.9527 12.2543C7.77416 12.5149 7.52078 12.7153 7.226 12.829C5.769 13.384 3.167 14.37 2.466 14.599C1.678 14.856 1.797 15.312 1.874 15.669C1.922 15.696 1.957 16.162 2.008 16.184L11.708 19.665C11.8882 19.7299 12.0813 19.7506 12.2711 19.7252C12.4609 19.6999 12.6419 19.6293 12.7987 19.5194C12.9555 19.4095 13.0837 19.2636 13.1723 19.0938C13.2609 18.9241 13.3075 18.7355 13.308 18.544L13.303 18.543Z" stroke="white"/>
<path d="M0.75598 12.955V4.415C0.74298 5.919 0.75198 10.595 0.75598 12.955Z" stroke="white"/>
<path d="M8.22724 6.15495V2.40795C8.22707 2.15749 8.16667 1.91074 8.05115 1.68852C7.93562 1.46629 7.76835 1.27511 7.56344 1.13109C7.35854 0.987063 7.122 0.894425 6.87379 0.860985C6.62557 0.827545 6.37295 0.854284 6.13724 0.938946L1.84524 2.48795C1.81642 2.53475 1.79167 2.58393 1.77123 2.63495C1.71225 2.78984 1.68545 2.95513 1.69247 3.12072C1.69948 3.28632 1.74016 3.44874 1.81203 3.5981C1.8839 3.74745 1.98545 3.88059 2.11048 3.98939C2.2355 4.0982 2.38139 4.18039 2.53924 4.23095L8.22724 6.15495Z" stroke="white"/>
<path d="M1.84469 2.48811C1.81587 2.53491 1.79112 2.58409 1.77069 2.63511C1.71219 2.78984 1.68576 2.95484 1.69302 3.12009C1.70027 3.28534 1.74106 3.4474 1.81289 3.5964C1.88473 3.7454 1.98611 3.87823 2.11088 3.98683C2.23565 4.09543 2.3812 4.17752 2.53869 4.22811L8.22569 6.15411V11.3691C8.22622 11.6851 8.13093 11.9937 7.95239 12.2544C7.77386 12.515 7.52048 12.7154 7.22569 12.8291C5.76869 13.3841 3.16669 14.3701 2.46569 14.5991C1.67769 14.8561 1.97669 15.4991 2.05269 15.8601C1.41669 15.4941 0.811688 15.0851 0.761688 14.3531V4.13411C0.76492 3.67061 0.939449 3.22468 1.25169 2.88211C1.41337 2.70473 1.6159 2.56949 1.84169 2.48811H1.84469Z" stroke="white"/>
</svg>
