<svg width="18" height="19" viewBox="0 0 18 19" fill="none" xmlns="http://www.w3.org/2000/svg">
<path d="M8.28463 1.02862C8.06755 1.04073 7.85173 1.06962 7.63911 1.11504C6.42381 1.38588 5.3369 2.06236 4.55725 3.03316C3.77759 4.00396 3.35163 5.21125 3.34945 6.45636V8.64008C3.34973 9.40551 3.18255 10.1617 2.85966 10.8557C2.53677 11.5497 2.06598 12.1647 1.48029 12.6575C1.31342 12.7998 1.18321 12.9802 1.10064 13.1834C1.01807 13.3866 0.985572 13.6066 1.00587 13.825C1.04037 14.1684 1.20208 14.4865 1.45921 14.7168C1.71633 14.9471 2.05029 15.0728 2.39543 15.0694H15.2592C15.606 15.0726 15.9413 14.9454 16.1987 14.713C16.4561 14.4806 16.6167 14.1599 16.6488 13.8146C16.667 13.5967 16.6328 13.3775 16.549 13.1755C16.4653 12.9735 16.3345 12.7944 16.1674 12.6532C15.5834 12.1604 15.1142 11.5458 14.7927 10.8526C14.4711 10.1594 14.305 9.40424 14.306 8.64008V6.46069C14.3035 5.16385 13.8414 3.9099 13.0017 2.92157C12.1621 1.93323 10.9994 1.27448 9.71999 1.06232C9.64308 1.04936 9.56617 1.04159 9.48926 1.03467C9.08903 0.990561 8.68528 0.988534 8.28463 1.02862Z" stroke="#595F51"/>
<path d="M8.81253 18.2008C9.4889 18.2002 10.1444 17.9664 10.6683 17.5386C11.1923 17.1109 11.5526 16.5154 11.6884 15.8529H5.9375C6.07334 16.5153 6.43353 17.1106 6.95729 17.5383C7.48105 17.9661 8.13631 18.2 8.81253 18.2008Z" stroke="#595F51"/>
</svg>
