<svg width="24" height="25" viewBox="0 0 24 25" fill="none" xmlns="http://www.w3.org/2000/svg">
<path d="M20.25 4.4375H3.75C3.4019 4.4375 3.06806 4.57578 2.82192 4.82192C2.57578 5.06806 2.4375 5.4019 2.4375 5.75V19.25C2.4375 19.5981 2.57578 19.9319 2.82192 20.1781C3.06806 20.4242 3.4019 20.5625 3.75 20.5625H20.25C20.5981 20.5625 20.9319 20.4242 21.1781 20.1781C21.4242 19.9319 21.5625 19.5981 21.5625 19.25V5.75C21.5625 5.4019 21.4242 5.06806 21.1781 4.82192C20.9319 4.57578 20.5981 4.4375 20.25 4.4375ZM3.75 5.5625H20.25C20.2997 5.5625 20.3474 5.58225 20.3826 5.61742C20.4177 5.65258 20.4375 5.70027 20.4375 5.75V15.8347L17.6747 13.0719C17.5528 12.95 17.4081 12.8533 17.2489 12.7873C17.0896 12.7214 16.9189 12.6874 16.7466 12.6874C16.5742 12.6874 16.4035 12.7214 16.2443 12.7873C16.085 12.8533 15.9403 12.95 15.8184 13.0719L13.8103 15.08L9.55313 10.8219C9.43125 10.7 9.28655 10.6033 9.1273 10.5373C8.96805 10.4714 8.79737 10.4374 8.625 10.4374C8.45263 10.4374 8.28195 10.4714 8.1227 10.5373C7.96345 10.6033 7.81875 10.7 7.69687 10.8219L3.5625 14.9562V5.75C3.5625 5.70027 3.58225 5.65258 3.61742 5.61742C3.65258 5.58225 3.70027 5.5625 3.75 5.5625ZM3.5625 19.25V16.5472L8.49188 11.6178C8.50931 11.6002 8.53004 11.5863 8.55289 11.5768C8.57574 11.5673 8.60025 11.5624 8.625 11.5624C8.64975 11.5624 8.67426 11.5673 8.69711 11.5768C8.71996 11.5863 8.74069 11.6002 8.75812 11.6178L16.5778 19.4375H3.75C3.70027 19.4375 3.65258 19.4177 3.61742 19.3826C3.58225 19.3474 3.5625 19.2997 3.5625 19.25ZM20.25 19.4375H18.1688L14.6063 15.875L16.6134 13.8669C16.6309 13.8494 16.6515 13.8356 16.6743 13.8262C16.6971 13.8167 16.7215 13.8119 16.7461 13.8119C16.7707 13.8119 16.7951 13.8167 16.8179 13.8262C16.8407 13.8356 16.8613 13.8494 16.8787 13.8669L20.4412 17.4294V19.25C20.4413 19.2749 20.4363 19.2996 20.4266 19.3226C20.417 19.3456 20.4028 19.3665 20.385 19.3839C20.3672 19.4014 20.3461 19.4151 20.3229 19.4243C20.2997 19.4335 20.2749 19.438 20.25 19.4375ZM13.6875 9.875C13.6875 9.68958 13.7425 9.50832 13.8455 9.35415C13.9485 9.19998 14.0949 9.07982 14.2662 9.00886C14.4375 8.93791 14.626 8.91934 14.8079 8.95551C14.9898 8.99169 15.1568 9.08098 15.2879 9.21209C15.419 9.3432 15.5083 9.51025 15.5445 9.6921C15.5807 9.87396 15.5621 10.0625 15.4911 10.2338C15.4202 10.4051 15.3 10.5515 15.1458 10.6545C14.9917 10.7575 14.8104 10.8125 14.625 10.8125C14.3764 10.8125 14.1379 10.7137 13.9621 10.5379C13.7863 10.3621 13.6875 10.1236 13.6875 9.875Z" fill="#3F4047"/>
</svg>
