<svg width="32" height="32" viewBox="0 0 32 32" fill="none" xmlns="http://www.w3.org/2000/svg">
<path d="M9.33334 9.33331H8.00001C7.29277 9.33331 6.61449 9.61426 6.11439 10.1144C5.61429 10.6145 5.33334 11.2927 5.33334 12V24C5.33334 24.7072 5.61429 25.3855 6.11439 25.8856C6.61449 26.3857 7.29277 26.6666 8.00001 26.6666H20C20.7073 26.6666 21.3855 26.3857 21.8856 25.8856C22.3857 25.3855 22.6667 24.7072 22.6667 24V22.6666" stroke="#3F4047" stroke-linecap="round" stroke-linejoin="round"/>
<path d="M21.3333 6.66666L25.3333 10.6667M27.18 8.77999C27.7051 8.25486 28.0001 7.54263 28.0001 6.79999C28.0001 6.05735 27.7051 5.34512 27.18 4.81999C26.6549 4.29486 25.9426 3.99985 25.2 3.99985C24.4574 3.99985 23.7451 4.29486 23.22 4.81999L12 16V20H16L27.18 8.77999Z" stroke="#3F4047" stroke-linecap="round" stroke-linejoin="round"/>
</svg>
