<svg width="14" height="3" viewBox="0 0 14 3" fill="none" xmlns="http://www.w3.org/2000/svg">
<path d="M12.25 -8.58307e-06C11.9533 -8.58307e-06 11.6633 0.0879691 11.4166 0.252791C11.17 0.417613 10.9777 0.651889 10.8642 0.925978C10.7507 1.20007 10.7209 1.50167 10.7788 1.79264C10.8367 2.08361 10.9796 2.35087 11.1893 2.56065C11.3991 2.77043 11.6664 2.9133 11.9574 2.97118C12.2483 3.02905 12.5499 2.99936 12.824 2.88582C13.0981 2.77229 13.3324 2.58002 13.4972 2.33335C13.662 2.08668 13.75 1.79666 13.75 1.49999C13.75 1.10217 13.592 0.720634 13.3107 0.43933C13.0294 0.158025 12.6478 -8.58307e-06 12.25 -8.58307e-06Z" fill="#A3A6B7"/>
<path d="M7 -8.58307e-06C6.70333 -8.58307e-06 6.41332 0.0879691 6.16664 0.252791C5.91997 0.417613 5.72772 0.651889 5.61419 0.925978C5.50066 1.20007 5.47094 1.50167 5.52882 1.79264C5.5867 2.08361 5.72956 2.35087 5.93934 2.56065C6.14912 2.77043 6.41641 2.9133 6.70738 2.97118C6.99835 3.02905 7.29995 2.99936 7.57404 2.88582C7.84813 2.77229 8.08238 2.58002 8.2472 2.33335C8.41202 2.08668 8.5 1.79666 8.5 1.49999C8.5 1.10217 8.34197 0.720634 8.06066 0.43933C7.77936 0.158025 7.39783 -8.58307e-06 7 -8.58307e-06Z" fill="#A3A6B7"/>
<path d="M1.75 -8.58307e-06C1.45333 -8.58307e-06 1.16332 0.0879691 0.916644 0.252791C0.66997 0.417613 0.477723 0.651889 0.364192 0.925978C0.250661 1.20007 0.220941 1.50167 0.278819 1.79264C0.336697 2.08361 0.479563 2.35087 0.689341 2.56065C0.89912 2.77043 1.16641 2.9133 1.45738 2.97118C1.74835 3.02905 2.04995 2.99936 2.32404 2.88582C2.59813 2.77229 2.83238 2.58002 2.9972 2.33335C3.16202 2.08668 3.25 1.79666 3.25 1.49999C3.25 1.10217 3.09197 0.720634 2.81066 0.43933C2.52936 0.158025 2.14783 -8.58307e-06 1.75 -8.58307e-06Z" fill="#A3A6B7"/>
</svg>
