<svg width="24" height="25" viewBox="0 0 24 25" fill="none" xmlns="http://www.w3.org/2000/svg">
<path d="M5.39999 5.29999C4.60434 5.29999 3.84128 5.61606 3.27867 6.17867C2.71606 6.74128 2.39999 7.50434 2.39999 8.29999V16.7C2.39999 17.4956 2.71606 18.2587 3.27867 18.8213C3.84128 19.3839 4.60434 19.7 5.39999 19.7H13.8C14.5956 19.7 15.3587 19.3839 15.9213 18.8213C16.4839 18.2587 16.8 17.4956 16.8 16.7V15.5L19.68 17.66C19.8583 17.7937 20.0703 17.8751 20.2922 17.8951C20.5142 17.9152 20.7373 17.873 20.9367 17.7733C21.136 17.6736 21.3036 17.5204 21.4208 17.3309C21.5379 17.1413 21.6 16.9228 21.6 16.7V8.29999C21.6 8.07713 21.5379 7.85868 21.4208 7.66911C21.3036 7.47954 21.136 7.32634 20.9367 7.22667C20.7373 7.12701 20.5142 7.08482 20.2922 7.10484C20.0703 7.12485 19.8583 7.20627 19.68 7.33999L16.8 9.49999V8.29999C16.8 7.50434 16.4839 6.74128 15.9213 6.17867C15.3587 5.61606 14.5956 5.29999 13.8 5.29999H5.39999ZM16.8 11L20.4 8.29999V16.7L16.8 14V11ZM15.6 8.29999V16.7C15.6 17.1774 15.4104 17.6352 15.0728 17.9728C14.7352 18.3103 14.2774 18.5 13.8 18.5H5.39999C4.9226 18.5 4.46477 18.3103 4.1272 17.9728C3.78964 17.6352 3.59999 17.1774 3.59999 16.7V8.29999C3.59999 7.8226 3.78964 7.36476 4.1272 7.0272C4.46477 6.68963 4.9226 6.49999 5.39999 6.49999H13.8C14.2774 6.49999 14.7352 6.68963 15.0728 7.0272C15.4104 7.36476 15.6 7.8226 15.6 8.29999Z" fill="#3F4047"/>
</svg>
